<?xml version="1.0" encoding="UTF-8" standalone="no"?>
<svg
   xmlns:dc="http://purl.org/dc/elements/1.1/"
   xmlns:cc="http://creativecommons.org/ns#"
   xmlns:rdf="http://www.w3.org/1999/02/22-rdf-syntax-ns#"
   xmlns:svg="http://www.w3.org/2000/svg"
   xmlns="http://www.w3.org/2000/svg"
   version="1.1"
   id="svg4136"
   viewBox="0 0 794.16143 283.46457"
   height="8cm"
   width="22.413cm">
  <defs
     id="defs4138" />
  <metadata
     id="metadata4141">
    <rdf:RDF>
      <cc:Work
         rdf:about="">
        <dc:format>image/svg+xml</dc:format>
        <dc:type
           rdf:resource="http://purl.org/dc/dcmitype/StillImage" />
        <dc:title></dc:title>
      </cc:Work>
    </rdf:RDF>
  </metadata>
  <g
     transform="translate(233.53937,0)"
     id="g4156">
    <g
       id="g4148">
      <polygon
         style="fill:#2b7677"
         points="300,0 420,208 180,208 "
         id="polygon4893"
         transform="matrix(0.54512417,0,0,0.54512417,4.767615e-7,-1e-4)" />
      <polygon
         style="fill:#2f87b5"
         points="120,312 240,520 0,520 "
         id="polygon4895"
         transform="matrix(0.54512417,0,0,0.54512417,4.767615e-7,-1e-4)" />
      <polygon
         style="fill:#545354"
         points="480,312 600,520 360,520 "
         id="polygon4897"
         transform="matrix(0.54512417,0,0,0.54512417,4.767615e-7,-1e-4)" />
      <polygon
         style="fill:#8eb0c9"
         points="240,520 360,520 480,312 420,208 180,208 120,312 "
         id="polygon4899"
         transform="matrix(0.54512417,0,0,0.54512417,4.767615e-7,-1e-4)" />
      <polygon
         style="fill:#e92b2b"
         points="300,468 195,286 405,286 "
         id="polygon4901"
         transform="matrix(0.54512417,0,0,0.54512417,4.767615e-7,-1e-4)" />
    </g>
    <g
       id="text4140"
       style="font-style:normal;font-weight:normal;font-size:40.81289291px;line-height:125%;font-family:sans-serif;letter-spacing:0px;word-spacing:0px;fill:#545354;fill-opacity:1;stroke:none;stroke-width:1px;stroke-linecap:butt;stroke-linejoin:miter;stroke-opacity:1"
       transform="scale(0.98008323,1.0203215)">
      <path
         id="path4156"
         style="font-style:normal;font-variant:normal;font-weight:bold;font-stretch:normal;font-size:91.82901001px;font-family:sans-serif;-inkscape-font-specification:'sans-serif Bold';letter-spacing:-4px;fill:#545354;fill-opacity:1"
         d="m 382.15494,107.50017 0,14.16893 q -5.51512,-2.46611 -10.76121,-3.72159 -5.24609,-1.25547 -9.90928,-1.25547 -6.1877,0 -9.14703,1.70386 -2.95934,1.70385 -2.95934,5.29093 0,2.6903 1.97289,4.2148 2.01773,1.47967 7.26382,2.55579 l 7.35349,1.47967 q 11.16476,2.24192 15.87279,6.81543 4.70803,4.57352 4.70803,13.00313 0,11.07508 -6.59124,16.50053 -6.5464,5.3806 -20.04276,5.3806 -6.36705,0 -12.77894,-1.21063 -6.41189,-1.21064 -12.82377,-3.58707 l 0,-14.57248 q 6.41188,3.40772 12.37539,5.15642 6.00834,1.70386 11.5683,1.70386 5.64964,0 8.65381,-1.88322 3.00417,-1.88321 3.00417,-5.3806 0,-3.13869 -2.06256,-4.84255 -2.01773,-1.70386 -8.11575,-3.04901 l -6.68092,-1.47966 q -10.0438,-2.15225 -14.70699,-6.86028 -4.61835,-4.70803 -4.61835,-12.68926 0,-9.99896 6.45672,-15.37957 6.45673,-5.3806 18.5631,-5.3806 5.51512,0 11.34411,0.85193 5.82899,0.80709 12.06152,2.46611 z" />
      <path
         id="path4158"
         style="font-style:normal;font-variant:normal;font-weight:bold;font-stretch:normal;font-size:91.82901001px;font-family:sans-serif;-inkscape-font-specification:'sans-serif Bold';letter-spacing:-4px;fill:#545354;fill-opacity:1"
         d="m 451.01732,168.65972 q -4.75287,2.46612 -9.90929,3.72159 -5.15641,1.25547 -10.76121,1.25547 -16.72472,0 -26.49948,-9.32638 -9.77477,-9.37122 -9.77477,-25.37852 0,-16.05215 9.77477,-25.37853 9.77476,-9.37122 26.49948,-9.37122 5.6048,0 10.76121,1.25547 5.15642,1.25548 9.90929,3.72159 l 0,13.85506 q -4.79771,-3.2732 -9.4609,-4.79771 -4.66319,-1.5245 -9.81961,-1.5245 -9.23671,0 -14.52763,5.91866 -5.29093,5.91867 -5.29093,16.32118 0,10.35766 5.29093,16.27633 5.29092,5.91867 14.52763,5.91867 5.15642,0 9.81961,-1.52451 4.66319,-1.5245 9.4609,-4.79771 l 0,13.85506 z" />
      <path
         id="path4160"
         style="font-style:normal;font-variant:normal;font-weight:bold;font-stretch:normal;font-size:91.82901001px;font-family:sans-serif;-inkscape-font-specification:'sans-serif Bold';letter-spacing:-4px;fill:#545354;fill-opacity:1"
         d="m 514.27489,168.65972 q -4.75287,2.46612 -9.90928,3.72159 -5.15641,1.25547 -10.76121,1.25547 -16.72472,0 -26.49949,-9.32638 -9.77476,-9.37122 -9.77476,-25.37852 0,-16.05215 9.77476,-25.37853 9.77477,-9.37122 26.49949,-9.37122 5.6048,0 10.76121,1.25547 5.15641,1.25548 9.90928,3.72159 l 0,13.85506 q -4.7977,-3.2732 -9.4609,-4.79771 -4.66319,-1.5245 -9.8196,-1.5245 -9.23671,0 -14.52764,5.91866 -5.29093,5.91867 -5.29093,16.32118 0,10.35766 5.29093,16.27633 5.29093,5.91867 14.52764,5.91867 5.15641,0 9.8196,-1.52451 4.6632,-1.5245 9.4609,-4.79771 l 0,13.85506 z" />
      <path
         id="path4162"
         style="font-style:normal;font-variant:normal;font-weight:bold;font-stretch:normal;font-size:91.82901001px;font-family:sans-serif;-inkscape-font-specification:'sans-serif Bold';letter-spacing:-4px;fill:#545354;fill-opacity:1"
         d="m 524.44382,105.39276 46.58708,0 0,13.04797 -29.3243,0 0,12.46507 27.57561,0 0,13.04797 -27.57561,0 0,15.33473 30.31075,0 0,13.04797 -47.57353,0 0,-66.94371 z" />
    </g>
  </g>
</svg>
