<svg id="SvgjsSvg1120" width="288" height="288" xmlns="http://www.w3.org/2000/svg" version="1.1" xmlns:xlink="http://www.w3.org/1999/xlink" xmlns:svgjs="http://svgjs.com/svgjs"><defs id="SvgjsDefs1121"></defs><g id="SvgjsG1122"><svg xmlns="http://www.w3.org/2000/svg" xmlns:xlink="http://www.w3.org/1999/xlink" width="288" height="288"><rect width="100%" height="100%" fill="none"></rect><defs><radialGradient id="b" cx="225.495" cy="345.812" r="38.553" fx="225.495" fy="345.812" gradientTransform="translate(75.528 18.04)" gradientUnits="userSpaceOnUse" xlink:href="#a"></radialGradient><linearGradient id="a"><stop offset="0" stop-color="#000000" class="stopColor000000 svgShape"></stop><stop offset="1" stop-color="#000000" class="stopColor000000 svgShape"></stop></linearGradient></defs><g class="currentLayer color000 svgShape" fill="#000000"><path d="M242.534,110.696 C242.97199999999998,112.93 241.653,115.076 239.58599999999998,115.481 C237.518,115.88499999999999 235.483,114.39599999999999 235.046,112.162 C235.005,111.951 234.97799999999998,111.743 234.969,111.535 C234.86499999999998,109.536 236.124,107.74199999999999 237.999,107.376 C239.54999999999998,107.072 241.077,107.833 241.932,109.17599999999999 C242.22199999999998,109.636 242.432,110.14599999999999 242.542,110.70599999999999 L242.534,110.696 z" fill="#000000" class="color000 svgShape"></path><path fill="#53f212" d="M237.714,101.92599999999999 C240.07299999999998,106.31 241.47,107.84200000000001 242.22199999999998,109.03200000000001 L241.932,109.179 C241.078,107.83600000000001 239.54999999999998,107.07499999999999 237.999,107.37899999999999 C236.124,107.745 234.864,109.53899999999999 234.969,111.53800000000001 L234.39999999999998,111.58099999999999 C234.12699999999998,108 233.614,105.007 232.82899999999998,102.227 C233.31099999999998,101.99600000000001 233.828,101.827 234.367,101.721 C235.487,101.49100000000001 236.62699999999998,101.58099999999999 237.707,101.92099999999999 L237.714,101.92599999999999 z" class="colorF2E512 svgShape"></path><path fill="#ffffff" d="M232.084,70.321 S233.22199999999998,113.31700000000001 274.771,123.381 C274.771,123.381 293.48900000000003,128.36100000000002 281.925,129.715 L277.557,130.638 L286.529,132.453 L281.546,137.068 S263.70500000000004,131.917 243.86499999999998,144.44400000000002 C240.914,146.309 238.213,148.15200000000002 235.703,149.95000000000002 L235.058,149.048 C237.488,147.33 240.863,142.19400000000002 241.856,127.095 C242.04399999999998,124.22 242.22799999999998,121.85900000000001 242.387,119.90700000000001 C244.31799999999998,117.64099999999999 245.20499999999998,114.11000000000001 244.48499999999999,110.429 C243.654,106.179 240.915,102.92599999999999 237.712,101.924 C237.319,101.195 236.902,100.39099999999999 236.453,99.49100000000001 C228.44299999999998,83.416 229.291,62.901 229.291,62.901 L229.295,62.9 C230.345,65.285 231.27499999999998,67.75399999999999 232.08499999999998,70.326 L232.084,70.321 z" class="colorFFF svgShape"></path><path fill="#53f212" d="M242.384,119.906 C242.225,121.857 242.04,124.219 241.85299999999998,127.094 C240.85999999999999,142.193 237.48499999999999,147.329 235.05499999999998,149.047 C233.547,150.11 232.405,149.87 232.405,149.87 S233.915,141.27200000000002 234.47799999999998,126.71800000000002 C234.541,125.041 234.59,123.457 234.61599999999999,121.96000000000001 C235.821,122.424 237.10899999999998,122.564 238.392,122.31300000000002 C239.97199999999998,122.013 241.332,121.143 242.38199999999998,119.91300000000001 L242.384,119.906 z" class="colorF2E512 svgShape"></path><path fill="#53f212" d="M242.224 109.036C243.325 110.77699999999999 243.04999999999998 111.79499999999999 242.392 119.912 241.34099999999998 121.14600000000002 239.977 122.01000000000002 238.39999999999998 122.31800000000001 237.117 122.56900000000002 235.82899999999998 122.429 234.624 121.965 234.69899999999998 117.95500000000001 234.631 114.566 234.402 111.58500000000001L234.971 111.542C234.98 111.75 235.00699999999998 111.958 235.048 112.16900000000001 235.486 114.40299999999999 237.51999999999998 115.893 239.588 115.488 241.655 115.083 242.974 112.93700000000001 242.536 110.703 242.426 110.14099999999999 242.21699999999998 109.62800000000001 241.933 109.18199999999999L242.213 109.02199999999999 242.224 109.036zM229.29399999999998 62.901999999999994S228.446 83.417 236.456 99.49199999999999C236.905 100.39099999999999 237.322 101.196 237.715 101.92500000000001 236.63299999999998 101.582 235.498 101.499 234.367 101.721 233.828 101.826 233.31099999999998 101.995 232.82899999999998 102.227 232.40099999999998 100.696 231.88899999999998 99.23599999999999 231.284 97.775 228.438 90.88499999999999 223.338 54.024 220.69799999999998 48.554L229.308 62.891 229.29399999999998 62.901999999999994zM220.48399999999998 48.171C220.554 48.271 220.626 48.403 220.696 48.553L220.404 48.064C220.434 48.099 220.45399999999998 48.135 220.48399999999998 48.171z" class="colorF2E512 svgShape"></path><path fill="#ffffff" d="M206.554,34.329 C211.719,38.359 216.387,42.913 220.402,48.064 L220.694,48.553 C223.334,54.023 228.434,90.88399999999999 231.28,97.774 C231.884,99.23500000000001 232.397,100.695 232.825,102.226 C229.28199999999998,103.88300000000001 227.29399999999998,108.59899999999999 228.273,113.60300000000001 C229.06699999999998,117.661 231.60299999999998,120.80800000000002 234.618,121.96000000000001 C234.593,123.457 234.54299999999998,125.041 234.48,126.71800000000002 C233.917,141.273 232.40699999999998,149.87 232.40699999999998,149.87 S233.54999999999998,150.11 235.057,149.047 L235.702,149.949 C221.343,160.21200000000002 213.326,168.804 201.471,169.574 C199.369,169.713 195.60299999999998,170.017 190.66199999999998,170.46200000000002 L190.661,170.457 C228.041,143.255 214.51399999999998,106.06 214.482,71.041 C214.452,46.353 209.482,37.44 206.542,34.33 L206.554,34.329 z" class="colorFFF svgShape"></path><path fill="#ffffff" d="M145.95399999999998,11.293 C147.511,11.530000000000001 198.42999999999998,19.45 200.161,39.72 C201.915,60.303000000000004 207.534,116.525 196.825,146.83 C186.11499999999998,177.132 185.27599999999998,168.197 172.226,168.93300000000002 C159.177,169.667 154.49699999999999,169.674 152.153,170.132 L149.804,170.592 L147.528,170.583 S158.911,161.985 161.226,124.68300000000002 C163.546,87.398 181.05599999999998,17.883 145.956,11.303 L145.95399999999998,11.293 z" class="colorFFF svgShape"></path><path fill="#65fb28" d="M137.464,149.346 S156.477,60.552 149.50199999999998,31.886000000000003 C142.527,3.225999999999999 95.57900000000001,7.412000000000001 95.57900000000001,7.412000000000001 C120.783,10.667000000000002 112.37400000000001,32.785 109.60300000000001,46.52 S99.998,104.357 99.828,142.833 C99.708,169.89700000000002 97.83200000000001,175.583 96.73,176.576 C96.467,176.582 96.203,176.579 95.938,176.577 C95.938,176.577 96.265,176.99 96.73,176.576 C143.42,176.64600000000002 137.45999999999998,149.346 137.45999999999998,149.346 L137.464,149.346 zM200.164,39.716 C198.434,19.446 147.51399999999998,11.526 145.957,11.289000000000001 C181.05599999999998,17.871 163.542,87.387 161.22899999999998,124.679 C158.914,161.982 147.53099999999998,170.579 147.53099999999998,170.579 L149.807,170.588 L152.15599999999998,170.12800000000001 C154.5,169.67000000000002 159.17999999999998,169.663 172.22899999999998,168.929 C185.279,168.19400000000002 186.118,177.12800000000001 196.828,146.826 C207.53799999999998,116.51599999999999 201.91799999999998,60.293 200.16799999999998,39.706 zM190.664,170.466 C162.869,172.936 97.93700000000001,179.58700000000002 83.644,183.544 C66.81400000000001,188.203 31.656,178.25300000000001 40.969,149.13400000000001 S58.701,116.547 58.701,116.547 L62.222,117.523 C62.785000000000004,119.44200000000001 63.614,121.077 64.807,122.17600000000002 C70.91300000000001,127.805 73.04100000000001,164.238 73.04100000000001,164.238 S72.93700000000001,168.353 76.546,163.55200000000002 C80.155,158.751 78.72500000000001,126.27600000000001 78.72500000000001,126.27600000000001 S76.586,89.38999999999999 80.233,75.483 C83.879,61.576 74.18100000000001,35.269 73.51700000000001,29.552999999999997 C72.854,23.842 69.751,26.583 69.751,26.583 S62.284,32.594 66.144,52.311 C68.97800000000001,66.791 65.44800000000001,83.988 63.374,92.1 L62.48,91.697 L55.126999999999995,91.31700000000001 S49.504999999999995,74.22 50.092,37.711 C50.092,37.711 50.817,22.102 43.025999999999996,16.348 C35.23,10.594999999999999 54.955999999999996,4.459 70.36800000000001,4.172000000000001 C82.376,3.9499999999999993 159.952,0.006000000000000227 204.458,32.748 L204.463,32.751 C205.16899999999998,33.268 205.864,33.796 206.552,34.334 C209.486,37.445 214.45999999999998,46.357 214.48,71.047 C214.511,106.066 228.039,143.261 190.659,170.463 L190.66899999999998,170.483 zM103.524,36.576 C102.18100000000001,29.715000000000003 95.808,25.189 89.293,26.464 S78.583,34.334 79.92500000000001,41.195 C81.268,48.056 87.641,52.582 94.156,51.307 S104.866,43.438 103.52600000000001,36.576 z" class="colorFBEA28 svgShape"></path><path fill="#ffffff" d="M149.494,31.895000000000003 C156.47,60.555 137.456,149.35500000000002 137.456,149.35500000000002 S143.41799999999998,176.65300000000002 96.721,176.59 C97.82300000000001,175.597 99.699,169.911 99.819,142.847 C99.989,104.37100000000001 106.824,60.27 109.59400000000001,46.534 S120.77300000000001,10.68 95.57000000000001,7.426 C95.57000000000001,7.412000000000001 142.51999999999998,3.225999999999999 149.48999999999998,31.886000000000003 L149.494,31.895000000000003 z" class="colorFFF svgShape"></path><path fill="#ffffff" d="M89.29400000000001,26.461 C95.80900000000001,25.186 102.182,29.711 103.525,36.573 S100.67200000000001,50.029 94.15700000000001,51.304 S81.269,48.054 79.926,41.192 C78.587,34.331 82.78200000000001,27.737000000000002 89.29700000000001,26.461 L89.29400000000001,26.461 zM101.364,36.996 C100.20400000000001,31.067999999999998 95.144,27.067 90.06200000000001,28.061999999999998 S81.802,34.669 82.962,40.598 C84.122,46.526 89.182,50.526 94.26400000000001,49.532000000000004 C99.34400000000001,48.537 102.524,42.924 101.364,36.996 z" class="colorFFF svgShape"></path><ellipse cx="98.91" cy="46.861" rx="10.938" ry="9.376" transform="rotate(-101.075 92.217 45.603)" fill="#000000" class="color000 svgShape"></ellipse><path fill="#ffffff" d="M69.75500000000001,26.579 S72.858,23.838 73.521,29.549 C74.185,35.265 83.884,61.571999999999996 80.23700000000001,75.47900000000001 S78.729,126.27200000000002 78.729,126.27200000000002 S80.159,158.74800000000002 76.55000000000001,163.548 C72.94000000000001,168.34900000000002 73.045,164.234 73.045,164.234 S70.918,127.80100000000002 64.811,122.172 C63.618,121.072 62.788999999999994,119.43799999999999 62.22599999999999,117.519 L63.51499999999999,117.876 S63.163000000000004,117.172 61.995,116.66300000000001 C60.037,108.703 62.065000000000005,96.77799999999999 62.065000000000005,96.77799999999999 S62.624,95.031 63.37799999999999,92.094 C65.452,83.982 68.982,66.785 66.14800000000001,52.305 C62.288000000000004,32.567 69.75500000000001,26.557000000000002 69.75500000000001,26.557000000000002 L69.75500000000001,26.579 z" class="colorFFF svgShape"></path><path fill="#65fb28" d="M55.131,91.31200000000001 L62.484,91.69200000000001 L63.37799999999999,92.095 C62.624,95.03200000000001 62.065000000000005,96.779 62.065000000000005,96.779 S60.037,108.70400000000001 61.995,116.66399999999999 C60.692,116.096 58.37199999999999,115.77199999999999 54.387,116.935 L54.141999999999996,116.1 C55.637,115.649 55.524,113.07300000000001 55.524,113.07300000000001 S57.275,102.267 56.160999999999994,96.571 C55.528999999999996,93.34200000000001 55.061,91.27699999999999 54.291,90.832 L54.294,90.827 C54.562,90.99199999999999 54.844,91.155 55.131,91.31700000000001 L55.131,91.31200000000001 z" class="colorFBEA28 svgShape"></path><path d="M54.291,90.83099999999999 C55.061,91.27600000000001 55.528,93.34100000000001 56.160999999999994,96.57 C57.276,102.26599999999999 55.524,113.072 55.524,113.072 S55.637,115.648 54.141999999999996,116.09899999999999 C53.665,116.243 53.028999999999996,116.17599999999999 52.181,115.74600000000001 C52.181,115.74600000000001 49.157,96.953 51.797999999999995,92.874 C52.943,91.106 53.702,90.494 54.291,90.82900000000001 L54.291,90.83099999999999 z" fill="#000000" class="color000 svgShape"></path><path fill="#3b5441" d="M35.021,62.949000000000005 C45.867,82.65799999999999 47.821,86.92500000000001 54.294,90.826 L54.291,90.83099999999999 C53.702,90.49600000000001 52.943999999999996,91.108 51.797,92.875 C49.156,96.95400000000001 52.18,115.74700000000001 52.18,115.74700000000001 C53.028,116.17699999999999 53.663999999999994,116.243 54.141,116.1 L54.385999999999996,116.935 C51.687999999999995,117.72200000000001 48.227999999999994,119.196 43.797999999999995,121.737 C26.973999999999997,131.4 9.31,140.77200000000002 9.31,140.77200000000002 S0.004999999999999893,146.68800000000002 2.619999999999999,106.596 C5.235999999999999,66.505 15.711999999999998,52.626 15.711999999999998,52.626 S23.722,42.414 35.021,62.949000000000005 z" class="colorF0F1F1 svgShape"></path><path fill="none" stroke="#2cb978" stroke-width=".25" d="M229.29399999999998,62.901999999999994 S228.446,83.417 236.456,99.49199999999999 C236.905,100.39099999999999 237.322,101.196 237.715,101.92500000000001 C240.07399999999998,106.309 241.471,107.84100000000001 242.22299999999998,109.031 C243.32399999999998,110.77199999999999 243.04899999999998,111.78999999999999 242.391,119.90700000000001 C242.232,121.858 242.047,124.22 241.85999999999999,127.095 C240.867,142.19400000000002 237.492,147.33 235.06199999999998,149.048 C233.554,150.11100000000002 232.41199999999998,149.871 232.41199999999998,149.871 S233.922,141.273 234.48499999999999,126.719 C234.548,125.042 234.59699999999998,123.458 234.623,121.96100000000001 C234.69799999999998,117.951 234.63,114.56200000000001 234.40099999999998,111.58099999999999 C234.128,108 233.61499999999998,105.007 232.82999999999998,102.227 C232.402,100.696 231.89,99.23599999999999 231.285,97.775 C228.439,90.88499999999999 223.339,54.024 220.69899999999998,48.554 C220.629,48.404 220.557,48.272 220.487,48.172 " class="colorStrokeBD9D09 svgStroke"></path><ellipse cx="98.472" cy="46.947" fill="none" stroke="#000000" stroke-width=".25" rx="12.023" ry="12.657" transform="rotate(-11.068 53.518 77.698)" class="colorStroke000 svgStroke"></ellipse><path fill="none" stroke="#000000" stroke-width=".25" d="M 204.46400018692017 32.74499987030029 C 205.17000018692016 33.26199987030029 205.86500018692016 33.78999987030029 206.55300018692017 34.327999870300296 C 211.71800018692016 38.35799987030029 216.38600018692017 42.91199987030029 220.40100018692016 48.062999870300295 C 220.43100018692016 48.09799987030029 220.45700018692017 48.13399987030029 220.48100018692017 48.169999870300295 C 223.94700018692018 52.623999870300295 226.91600018692017 57.519999870300296 229.29300018692015 62.89999987030029 C 230.34100018692016 65.2789998703003 231.27500018692015 67.7489998703003 232.08300018692017 70.3199998703003 C 232.08300018692017 70.3199998703003 233.22100018692018 113.31599987030029 274.7700001869202 123.37999987030028 C 274.7700001869202 123.37999987030028 293.48800018692015 128.3599998703003 281.9240001869202 129.71399987030028 L 277.5560001869202 130.6369998703003 L 286.52800018692017 132.45199987030028 L 281.54500018692016 137.0669998703003 S 263.70400018692015 131.91599987030028 243.86400018692018 144.4429998703003 C 240.91300018692016 146.3079998703003 238.21200018692016 148.1509998703003 235.70200018692017 149.9489998703003 C 221.34300018692016 160.2119998703003 213.32600018692017 168.8039998703003 201.47100018692018 169.5739998703003 C 199.36900018692018 169.71299987030028 195.60300018692016 170.01699987030028 190.66200018692015 170.4619998703003 C 162.86700018692017 172.9319998703003 97.93500018692016 179.58299987030028 83.64200018692017 183.5399998703003 C 66.81200018692017 188.1989998703003 31.654000186920165 178.24899987030028 40.96700018692017 149.12999987030028 S 58.69900018692016 116.54299987030029 58.69900018692016 116.54299987030029 L 62.22000018692016 117.51899987030029 L 63.50900018692016 117.87599987030029 S 63.15700018692017 117.1719998703003 61.989000186920165 116.6629998703003 C 60.68600018692017 116.0949998703003 58.36600018692016 115.77099987030029 54.38100018692017 116.9339998703003 C 51.68300018692017 117.72099987030029 48.22300018692017 119.1949998703003 43.79300018692017 121.7359998703003 C 26.96900018692017 131.3989998703003 9.305000186920164 140.7709998703003 9.305000186920164 140.7709998703003 S 1.869201664561615e-7 146.6869998703003 2.6150001869201667 106.5949998703003 C 5.231000186920166 66.50399987030029 15.707000186920165 52.62499987030029 15.707000186920165 52.62499987030029 S 23.716000186920166 42.41299987030029 35.01500018692017 62.94799987030029 C 45.861000186920165 82.6569998703003 47.815000186920166 86.92399987030029 54.288000186920165 90.82499987030029 C 54.556000186920166 90.98599987030029 54.83800018692017 91.14899987030029 55.12500018692017 91.3109998703003 C 55.12500018692017 91.3109998703003 49.50300018692017 74.2139998703003 50.090000186920165 37.70499987030029 C 50.090000186920165 37.70499987030029 50.815000186920166 22.095999870300293 43.02400018692017 16.34199987030029 C 35.22800018692016 10.588999870300292 54.95400018692017 4.452999870300292 70.36600018692016 4.165999870300293 C 82.37400018692017 3.943999870300292 159.95000018692016 -1.2969970697440658e-7 204.45600018692016 32.74199987030029" class="colorStroke000 svgStroke"></path><line x1="55.131" x2="62.484" y1="91.312" y2="91.692" fill="none" stroke="#000000" stroke-width=".25" class="colorStroke000 svgStroke"></line><ellipse cx="98.91" cy="46.861" fill="none" stroke="#000000" stroke-width=".25" rx="9.376" ry="10.938" transform="rotate(-11.068 53.958 77.613)" class="colorStroke000 svgStroke"></ellipse><path fill="none" stroke="#2cb978" stroke-width=".25" d="M63.37799999999999,92.096 C65.452,83.98400000000001 68.982,66.787 66.14800000000001,52.307 C62.288999999999994,32.59 69.75500000000001,26.579 69.75500000000001,26.579 S72.858,23.838 73.521,29.549 C74.185,35.265 83.884,61.571999999999996 80.23700000000001,75.47900000000001 S78.729,126.27200000000002 78.729,126.27200000000002 S80.159,158.74800000000002 76.55000000000001,163.548 C72.94000000000001,168.34900000000002 73.045,164.234 73.045,164.234 S70.918,127.80100000000002 64.811,122.172 C63.618,121.072 62.788999999999994,119.43799999999999 62.22599999999999,117.519 C62.13999999999999,117.24100000000001 62.065000000000005,116.95500000000001 61.995,116.66399999999999 C60.037,108.70400000000001 62.065000000000005,96.779 62.065000000000005,96.779 S62.624,95.019 63.37799999999999,92.07900000000001 L63.37799999999999,92.096 z" class="colorStrokeBD9D09 svgStroke"></path><path fill="none" stroke="#ffffff" stroke-width=".25" d="M54.141999999999996,116.096 C53.665,116.24000000000001 53.028999999999996,116.173 52.181,115.743 C52.181,115.743 49.157,96.94999999999999 51.797999999999995,92.87100000000001 C52.943999999999996,91.10400000000001 53.702999999999996,90.49199999999999 54.291999999999994,90.827 C55.062,91.27199999999999 55.528999999999996,93.33699999999999 56.162,96.566 C57.276999999999994,102.262 55.525,113.06800000000001 55.525,113.06800000000001 S55.635999999999996,115.638 54.141999999999996,116.088 L54.141999999999996,116.096 z" class="colorStrokeFFF svgStroke"></path><path fill="none" stroke="#2cb978" stroke-width=".25" d="M145.95399999999998 11.293C147.511 11.530000000000001 198.42999999999998 19.45 200.161 39.72 201.915 60.303000000000004 207.534 116.525 196.825 146.83 186.11499999999998 177.132 185.27599999999998 168.197 172.226 168.93300000000002 159.177 169.667 154.49699999999999 169.674 152.153 170.132L149.804 170.592 147.528 170.583S158.911 161.985 161.226 124.68300000000002C163.546 87.398 181.05599999999998 17.883 145.956 11.303L145.95399999999998 11.293zM145.95399999999998 11.293C145.95 11.294 145.944 11.291 145.94 11.292000000000002 145.926 11.29 145.917 11.288 145.917 11.288M96.724 176.586C96.461 176.592 96.197 176.589 95.932 176.58700000000002 95.932 176.58700000000002 96.262 176.997 96.72200000000001 176.58700000000002L96.724 176.586z" class="colorStrokeBD9D09 svgStroke"></path><path fill="none" stroke="#2cb978" stroke-width=".25" d="M96.724,176.586 C97.82600000000001,175.59300000000002 99.702,169.907 99.822,142.84300000000002 C99.992,104.36699999999999 106.827,60.266 109.59700000000001,46.53 S120.77600000000001,10.675999999999998 95.57300000000001,7.422000000000001 S142.521,3.2360000000000007 149.49599999999998,31.896 C156.47199999999998,60.556000000000004 137.458,149.356 137.458,149.356 S143.428,176.64600000000002 96.72800000000001,176.586 L96.724,176.586 z" class="colorStrokeBD9D09 svgStroke"></path><path fill="none" stroke="#ffffff" stroke-width=".25" d="M204.464,32.745 C204.527,32.765 205.375,33.076 206.553,34.328 C209.487,37.439 214.46099999999998,46.351 214.481,71.041 C214.512,106.06 228.04,143.255 190.66,170.457 " class="colorStrokeFFF svgStroke"></path><line x1="204.464" x2="204.464" y1="32.742" y2="32.745" fill="none" stroke="#000000" stroke-width=".25" class="colorStroke000 svgStroke"></line><path fill="#ffffff" stroke="url(#b)" stroke-opacity=".615" stroke-width="5.7" d="M246.99024223925218,117.3259605518185 C246.99024223925218,124.7039783031085 241.0091807077722,130.6850398345885 233.63116295648223,130.6850398345885 C226.2531489468822,130.6850398345885 220.27208741540218,124.7039783031085 220.27208741540218,117.3259605518185 C220.27208741540218,109.94794654221852 226.2531489468822,103.96688501073854 233.63116295648223,103.96688501073854 C241.0091807077722,103.96688501073854 246.99024223925218,109.94794654221852 246.99024223925218,117.3259605518185 z" class="colorFFF svgShape"></path><path d="M239.0170811816139,301.2697111816139 C239.0170811816139,308.0154811816139 233.2120211816139,313.4840111816139 226.0511311816139,313.4840111816139 C218.8902411816139,313.4840111816139 213.08519118161388,308.0154811816139 213.08519118161388,301.2697111816139 C213.08519118161388,294.5239411816139 218.8902411816139,289.0554211816139 226.0511311816139,289.0554211816139 C233.2120211816139,289.0554211816139 239.0170811816139,294.5239411816139 239.0170811816139,301.2697111816139 z" opacity=".839" transform="matrix(.3796 0 0 .3796 148.637 3.217)" fill="#000000" class="color000 svgShape"></path></g></svg></g></svg>